PathFileType	4	(X/Y/Z)	OpenSim_Sub09_CSBaseline_Gyro.trc
DataRate	CameraRate	NumFrames	NumMarkers	Units	OrigDataRate	OrigDataStartFrame	OrigNumFrames
100	100	30	8	m	100	5111	5840
Frame#	Time	torso_imu_offset_imu	pelvis_imu_offset_imu	tibia_r_imu_offset_imu	femur_r_imu_offset_imu	tibia_l_imu_offset_imu	femur_l_imu_offset_imu	toes_r_imu_offset_imu	toes_l_imu_offset_imu
				X1	Y1	Z1	X2	Y2	Z2	X3	Y3	Z3	X4	Y4	Z4	X5	Y5	Z5	X6	Y6	Z6	X7	Y7	Z7	X8		Y8	Z8	

5111	51.10000000	-0.28753222	-0.18924499	-0.12224179	-0.35857683	0.09477120	0.15368735	0.58512524	-0.23700884	-0.93449611	-0.68727302	0.40725841	1.85842278	-1.69749784	-0.12276459	0.51104639	-0.63937940	-0.29289869	0.82060154	-0.83514668	1.55487220	-0.67731602	-0.08389443	0.03353087	-0.03096035
5112	51.11000000	-0.27839154	-0.21095374	-0.12629460	-0.32332230	0.10020006	0.24325780	-0.23684904	-0.43750295	-0.64604226	-0.54345814	0.35342384	1.73471796	-2.11638548	-0.05178972	0.39774253	-0.51109832	-0.25942802	0.85212235	-0.81760220	2.46098886	-0.31268180	-0.04127028	0.01510966	-0.05349551
5113	51.12000000	-0.26832662	-0.23017743	-0.11829607	-0.31833184	0.11154683	0.33824043	-1.45426852	-0.96503850	-0.06764390	-0.30379453	0.34663940	1.64340821	-1.95833759	-0.10146250	0.36058760	-0.38087417	-0.22776915	0.87483782	-0.24855289	2.53706266	-0.06966398	-0.00719754	-0.01899871	-0.05560830
5114	51.13000000	-0.26180281	-0.24086597	-0.12790378	-0.31935941	0.13010092	0.41147546	-2.11150888	-1.25201519	0.58403039	-0.01318221	0.37604362	1.63932883	-1.20313008	-0.24238404	0.41032700	-0.16822298	-0.25599563	0.85494942	0.32103687	2.36136486	0.06355256	0.00032565	-0.02310185	-0.04156547
5115	51.14000000	-0.25666495	-0.23557689	-0.13195924	-0.30712999	0.14117105	0.46573598	-2.13736004	-1.01707952	1.10204585	0.24539657	0.39359085	1.67547741	-0.19218512	-0.33098369	0.47284546	0.00354098	-0.23581503	0.87304899	0.35527916	2.27518626	0.22273003	-0.01790253	-0.02413102	-0.00757989
5116	51.15000000	-0.25065907	-0.22403055	-0.13075840	-0.29719409	0.15303440	0.50460157	-2.05961018	-0.56768840	1.56874885	0.41525698	0.41170926	1.71046678	0.60956014	-0.34803422	0.48609659	0.09871791	-0.14203997	0.93556779	0.02985392	2.33038198	0.53573978	-0.04580164	-0.01330734	0.03781776
5117	51.16000000	-0.24276363	-0.21381982	-0.12404784	-0.29949362	0.17018099	0.52894845	-1.78183246	-0.21515040	1.99756196	0.50301733	0.43726595	1.69991837	0.97586203	-0.36963056	0.44769969	0.16368337	-0.10166889	0.93249385	-0.37537892	2.51222575	0.93015672	-0.08517471	0.00738728	0.07684654
5118	51.17000000	-0.24481634	-0.19915151	-0.10767116	-0.31622832	0.19864977	0.54452633	-1.07866930	-0.02618388	2.31852158	0.55263213	0.45263545	1.63392716	0.96904699	-0.29126666	0.42306872	0.27746620	-0.13453539	0.92250787	-0.73199625	2.75383788	1.27937718	-0.08475377	0.01574376	0.09355788
5119	51.18000000	-0.25700710	-0.18668640	-0.09861108	-0.34548125	0.22356500	0.55217811	-0.29697581	0.06102006	2.55078980	0.58068464	0.48192776	1.53621551	0.67193123	-0.19268103	0.44111387	0.43053788	-0.19493599	0.89493901	-0.92808758	3.00294156	1.55805632	-0.08308241	0.00869895	0.09670618
5120	51.19000000	-0.26656431	-0.19083675	-0.09146602	-0.35388145	0.24586444	0.53789916	0.17819160	0.10183987	2.78066966	0.61414887	0.50994659	1.42923204	0.29957397	-0.16888336	0.40431088	0.55696209	-0.18878989	0.86646486	-0.89711666	3.24715526	1.74618234	-0.07203538	0.00536265	0.09375901
5121	51.20000000	-0.27657767	-0.19619770	-0.08763506	-0.35621506	0.26760199	0.51229173	0.29286656	0.15276603	3.02876189	0.66341617	0.53399576	1.30561509	-0.00027827	-0.15378103	0.33647804	0.64633017	-0.13885331	0.87387379	-0.74634327	3.50925411	1.87689913	-0.06115442	-0.00372766	0.08228686
5122	51.21000000	-0.28199233	-0.20134892	-0.08497971	-0.34538885	0.28244819	0.48143539	0.28548932	0.21675566	3.24814414	0.70473079	0.54341503	1.18824121	-0.15729278	-0.17548273	0.33175282	0.74391601	-0.13349870	0.85680563	-0.63568134	3.76047650	1.96569349	-0.04858339	-0.00975920	0.06887924
5123	51.22000000	-0.28345266	-0.20337647	-0.07973601	-0.32059954	0.29593133	0.44269458	0.26844534	0.31007183	3.44260039	0.71904146	0.54966211	1.08301485	-0.13658070	-0.18576069	0.34112743	0.69861857	-0.01955171	0.90936110	-0.62657173	3.95219297	2.03517164	-0.03661260	-0.01440592	0.06488295
5124	51.23000000	-0.27694934	-0.21039003	-0.07256529	-0.28991564	0.30236507	0.40039326	0.29289115	0.45137472	3.62570884	0.71051277	0.55308772	0.99857868	-0.00814280	-0.18821560	0.33826298	0.62570776	0.03212279	0.91544676	-0.71915593	4.08332936	2.09074495	-0.05082815	-0.01946258	0.07076248
5125	51.24000000	-0.26457412	-0.21480866	-0.06426843	-0.25569236	0.29092047	0.35948793	0.36425577	0.65063033	3.84934305	0.64305507	0.55247848	0.92434950	0.12100642	-0.18454807	0.32941488	0.52941539	0.07001729	0.89038669	-0.88965019	4.17116722	2.10845026	-0.05993152	-0.01412682	0.07956707
5126	51.25000000	-0.24435220	-0.22582582	-0.05709765	-0.22182153	0.27811978	0.31458555	0.36559416	0.80504339	4.11063050	0.57733604	0.52055870	0.82851787	0.20465892	-0.16902185	0.35348205	0.29726186	0.15855896	0.91597639	-1.05814385	4.23791464	2.08049123	-0.08096805	-0.00693007	0.09240744
5127	51.26000000	-0.21762215	-0.23948020	-0.05006406	-0.20050988	0.25947164	0.26503373	0.26410976	0.91502356	4.35823804	0.45051088	0.42523280	0.73846500	0.19168680	-0.12854683	0.39292658	0.18619968	0.09140546	0.84107551	-1.13329970	4.27492105	2.01123985	-0.08633329	0.00013398	0.09621757
5128	51.27000000	-0.18539964	-0.25341934	-0.05564316	-0.18741823	0.24218520	0.22553467	0.15223011	0.98882898	4.52838337	0.32616827	0.33224454	0.63118232	0.13970407	-0.10953072	0.41911369	0.00935281	0.01144917	0.85416342	-1.06568033	4.25845687	1.93580526	-0.09421313	0.00914723	0.09686749
5129	51.28000000	-0.14855550	-0.26636603	-0.05747906	-0.18592028	0.23623802	0.18949071	0.22797419	1.10390125	4.63514717	0.26245983	0.25766800	0.48447108	0.12027383	-0.09291399	0.44719695	-0.17226617	-0.05145820	0.85998943	-0.94144078	4.18039512	1.90142521	-0.09509389	0.01022767	0.10382511
5130	51.29000000	-0.12099653	-0.27489689	-0.05846554	-0.19059562	0.23150647	0.15844123	0.53749547	1.30110228	4.66866283	0.19184990	0.16007251	0.31590010	0.09539809	-0.09482258	0.47030414	-0.30013145	-0.10663444	0.84321905	-0.85705732	4.03058947	1.88287047	-0.11442599	0.01381800	0.11363482
5131	51.30000000	-0.09397993	-0.27799151	-0.06080741	-0.19348343	0.22098432	0.11666291	0.64869997	1.48407779	4.62287507	0.12570313	0.03379187	0.15062436	0.09336201	-0.08453138	0.50802892	-0.38664754	-0.15744292	0.85259532	-0.85970744	3.80212454	1.83519007	-0.11691354	0.02150962	0.11698090
5132	51.31000000	-0.07701465	-0.27500996	-0.05959823	-0.18548668	0.19138232	0.07176667	0.33958854	1.62250523	4.56188867	0.06643933	-0.09677725	-0.00814032	0.06390214	-0.04809668	0.55083820	-0.42349581	-0.21895592	0.83872215	-0.92300979	3.55838858	1.75326049	-0.12344051	0.01768096	0.12368710
5133	51.32000000	-0.06474513	-0.27476827	-0.06700563	-0.15745788	0.15873540	0.03249564	-0.13990542	1.76116192	4.61623239	-0.01762574	-0.23999495	-0.13596547	-0.00882066	0.00519029	0.57841391	-0.45635264	-0.25700850	0.87042672	-0.94334250	3.47826893	1.64627779	-0.13858915	0.01163467	0.13981484
5134	51.33000000	-0.05447941	-0.26207300	-0.06631264	-0.11610840	0.13127984	0.00167641	-0.62539978	1.80811814	4.77103084	-0.11552396	-0.38426736	-0.26560881	0.01635679	0.00681986	0.59715391	-0.42654227	-0.25273218	0.87011997	-0.87091436	3.66859446	1.52097878	-0.15750707	0.00941353	0.16052064
5135	51.34000000	-0.04737763	-0.24641018	-0.06648305	-0.08429862	0.11597039	-0.03568256	-0.90005730	1.70317743	4.79579866	-0.18426158	-0.51240595	-0.37262491	0.11003241	-0.00504241	0.65682523	-0.41767806	-0.21993659	0.88651606	-0.81033108	3.90040091	1.34815687	-0.15816327	-0.00575171	0.16990145
5136	51.35000000	-0.04129623	-0.23724042	-0.06460824	-0.04926177	0.12016124	-0.05754188	-0.93189197	1.45303904	4.65238003	-0.18926982	-0.59839085	-0.47734916	0.17941686	0.03460567	0.71058732	-0.37681088	-0.22348840	0.89991817	-0.79328803	4.00399741	1.16240746	-0.15601932	-0.01945056	0.18104505
5137	51.36000000	-0.02148493	-0.22455158	-0.06336014	-0.00601146	0.14601990	-0.06707448	-0.96782469	1.18104268	4.49513505	-0.13488407	-0.62918211	-0.56263007	0.26071174	0.04719387	0.74871933	-0.31414484	-0.18523227	0.91324178	-0.79550606	3.96584882	1.02144645	-0.15162152	-0.04216773	0.19612507
5138	51.37000000	-0.00685738	-0.20702255	-0.06182189	0.04027998	0.16364084	-0.08560837	-1.01236655	1.03508423	4.38112951	-0.06093352	-0.61952659	-0.61400269	0.30035186	0.06465566	0.77535346	-0.22182262	-0.15874104	0.90664360	-0.76693573	3.90672173	1.00561946	-0.14869869	-0.06333554	0.21213384
5139	51.38000000	0.01261237	-0.19147699	-0.05904783	0.10290587	0.16395709	-0.08628485	-0.89657228	1.06928739	4.23150759	0.01726660	-0.58847436	-0.62510975	0.26893857	0.06746141	0.83745561	-0.13694811	-0.10037695	0.89630472	-0.64728838	3.89178427	1.14821366	-0.14729756	-0.09483405	0.22395973
5140	51.39000000	0.02241272	-0.16696370	-0.04767956	0.16471381	0.14088323	-0.09243300	-0.66091106	1.18280176	3.97400070	0.09743239	-0.51733076	-0.60096290	0.22974843	0.08165891	0.89737884	0.00424236	-0.05506649	0.83986608	-0.48739805	3.82036425	1.42923808	-0.12224249	-0.11692848	0.22083260
